<?xml version="1.0" encoding="UTF-8"?>
<svg xmlns="http://www.w3.org/2000/svg" xmlns:xlink="http://www.w3.org/1999/xlink" width="50" height="50" viewBox="0 0 50 50" version="1.1">
<g id="surface1">
<path style=" stroke:none;fill-rule:nonzero;fill:#48d72f;fill-opacity:1;" 
d="M 49.550781 11.015625 C 48.558594 9.167969 46.261719 8.472656 44.414062 9.464844 C 42.199219 10.648438 40.105469 11.871094 38.105469 
   13.148438 L 38.105469 8.003906 C 38.105469 6.867188 37.1875 5.945312 36.050781 5.945312 L 2.054688 5.945312 C 0.917969 5.945312 0 6.867188 0 
   8.003906 L 0 42 C 0 43.132812 0.917969 44.054688 2.054688 44.054688 L 36.046875 44.054688 C 37.1875 44.054688 38.105469 43.132812 38.105469 42 
   L 38.105469 22.339844 C 41.128906 20.113281 44.359375 18.101562 47.996094 16.152344 C 49.84375 15.164062 50.539062 12.863281 49.550781 11.015625 Z 
   M 33.996094 39.941406 L 4.113281 39.941406 L 4.113281 10.058594 L 33.996094 10.058594 L 33.996094 15.953125 C 29.910156 18.929688 26.164062 22.253906 
   22.46875 26.160156 C 22.042969 25.589844 21.605469 25.011719 21.152344 24.40625 C 20.214844 23.152344 19.148438 21.730469 17.902344 20.125 C 16.617188 
   18.472656 14.234375 18.171875 12.578125 19.457031 C 10.921875 20.742188 10.625 23.128906 11.910156 24.78125 C 13.113281 26.332031 14.113281 27.664062 
   15.078125 28.953125 C 16.46875 30.808594 17.78125 32.5625 19.339844 34.453125 C 20.050781 35.3125 21.101562 35.816406 22.21875 35.832031 C 22.234375 
   35.832031 22.25 35.832031 22.265625 35.832031 C 23.363281 35.832031 24.410156 35.355469 25.132812 34.527344 C 28.089844 31.121094 30.972656 28.207031 
   33.996094 25.609375 Z M 33.996094 39.941406 "/>
</g>
</svg>
